<?xml version="1.0" encoding="utf-8"?>
<!-- Uploaded to: SVG Repo, www.svgrepo.com, Generator: SVG Repo Mixer Tools -->
<svg fill="#000000" width="800px" height="800px" viewBox="-5.5 0 32 32" version="1.1" xmlns="http://www.w3.org/2000/svg">
<title>external</title>
<path d="M15.656 8.5l-10.438 10.5 2.188 2.219 10.469-10.469 1.938 1.906c0.531 0.531 1 0.375 1-0.438v-5.656c0-0.5-0.438-0.969-0.969-0.969h-5.656c-0.813 0-1 0.469-0.469 1zM16.813 23.031v-7.094h2.375v7.906c0 1.406-1.156 2.563-2.563 2.563h-14.063c-1.406 0-2.563-1.156-2.563-2.563v-14.094c0-1.406 1.156-2.563 2.563-2.531h8.656v2.375h-7.844c-0.5 0-0.969 0.469-0.969 0.969v12.469c0 0.5 0.469 0.969 0.969 0.969h12.469c0.5 0 0.969-0.469 0.969-0.969z"></path>
</svg>